<svg width="372" height="424" viewBox="0 0 372 424" fill="none" xmlns="http://www.w3.org/2000/svg">
<path d="M362.763 112.685H9.146C4.265 112.685 0.306 116.642 0.306 121.525V164.212C0.306 169.094 4.265 173.053 9.146 173.053H18.304L45.517 318.906C29.142 328.829 18.175 346.821 18.175 367.328C18.175 398.526 43.556 423.906 74.753 423.906C105.95 423.906 131.333 398.526 131.333 367.328C131.333 365.725 131.247 364.143 131.118 362.574H240.79C240.659 364.143 240.575 365.726 240.575 367.328C240.575 398.526 265.956 423.906 297.153 423.906C328.35 423.906 353.731 398.526 353.731 367.328C353.731 346.821 342.762 328.829 326.387 318.906L353.602 173.053H362.76C367.641 173.053 371.6 169.094 371.6 164.212V121.525C371.601 116.642 367.642 112.685 362.763 112.685ZM74.753 388.545C63.056 388.545 53.536 379.028 53.536 367.328C53.536 355.629 63.056 346.111 74.753 346.111C86.452 346.111 95.97 355.63 95.97 367.328C95.971 379.028 86.453 388.545 74.753 388.545ZM297.153 388.545C285.454 388.545 275.936 379.028 275.936 367.328C275.936 355.629 285.454 346.111 297.153 346.111C308.85 346.111 318.37 355.63 318.37 367.328C318.37 379.028 308.851 388.545 297.153 388.545Z" fill="white"/>
<path d="M316.517 49.776C316.324 49.413 316.038 49.106 315.691 48.886L294.47 35.528C293.501 34.917 292.24 35.092 291.47 35.94L286.726 41.178L282.023 25.264C281.878 24.782 281.585 24.357 281.185 24.054L254.368 3.721C253.694 3.208 252.796 3.098 252.013 3.433L227.333 14.025L199.278 18.574L175.003 6.722C174.903 6.674 174.802 6.632 174.696 6.597L154.657 0.114003C153.934 -0.119997 153.139 0.0100031 152.528 0.464003L134.917 13.529L112.165 12.77C111.659 12.756 111.155 12.901 110.737 13.193L85.985 30.481C85.352 30.922 84.975 31.644 84.975 32.414V40.145L68.74 53.583C68.677 53.637 68.615 53.692 68.556 53.752L35.356 88.139L336.946 88.281L316.517 49.776Z" fill="white"/>
</svg>
